<?xml version="1.0" encoding="UTF-8" standalone="no"?>
<svg
   xmlns:dc="http://purl.org/dc/elements/1.1/"
   xmlns:cc="http://creativecommons.org/ns#"
   xmlns:rdf="http://www.w3.org/1999/02/22-rdf-syntax-ns#"
   xmlns:svg="http://www.w3.org/2000/svg"
   xmlns="http://www.w3.org/2000/svg"
   xmlns:sodipodi="http://sodipodi.sourceforge.net/DTD/sodipodi-0.dtd"
   xmlns:inkscape="http://www.inkscape.org/namespaces/inkscape"
   version="1.1"
   id="svg2"
   xml:space="preserve"
   width="3733.3333"
   height="2666.6667"
   viewBox="0 0 3733.3333 2666.6667"
   sodipodi:docname="11000.svg"
   inkscape:export-filename="/home/ashad/Downloads/people-using-search-box-query-engine-giving-result/g14.png"
   inkscape:export-xdpi="38.57143"
   inkscape:export-ydpi="38.57143"
   inkscape:version="1.0.1 (0767f8302a, 2020-10-17)"><metadata
     id="metadata8"><rdf:RDF><cc:Work
         rdf:about=""><dc:format>image/svg+xml</dc:format><dc:type
           rdf:resource="http://purl.org/dc/dcmitype/StillImage" /><dc:title></dc:title></cc:Work></rdf:RDF></metadata><defs
     id="defs6" /><sodipodi:namedview
     pagecolor="#ffffff"
     bordercolor="#666666"
     borderopacity="1"
     objecttolerance="10"
     gridtolerance="10"
     guidetolerance="10"
     inkscape:pageopacity="0"
     inkscape:pageshadow="2"
     inkscape:window-width="1366"
     inkscape:window-height="705"
     id="namedview4"
     showgrid="false"
     inkscape:zoom="0.138375"
     inkscape:cx="805.16893"
     inkscape:cy="1333.3334"
     inkscape:window-x="0"
     inkscape:window-y="30"
     inkscape:window-maximized="1"
     inkscape:current-layer="g12" /><g
     id="g10"
     inkscape:groupmode="layer"
     inkscape:label="ink_ext_XXXXXX"
     transform="matrix(1.3333333,0,0,-1.3333333,0,2666.6667)"><g
       id="g12"
       transform="scale(0.1)"><g
         id="g18"
         transform="scale(1.71779)"><path
           d="m 2065.04,1032.84 c 0,0 -1733.564,1830.08 -629.56,3982.15 C 2539.49,7167.08 4020.92,6084.1 3950.06,8589.39 3879.21,11094.7 7358.81,11308.7 8466.1,10581.9 9573.46,9855.09 9671.02,9387 11957.6,9675.67 14244.1,9964.35 15307.4,7832 14556,6352.42 13678.3,4624.25 16322.2,4456.83 14313.3,1028.53 l -12248.26,4.31"
           style="fill:#ebf3fa;fill-opacity:1;fill-rule:nonzero;stroke:none"
           id="path20" /></g><g
         id="g22"
         transform="scale(1.48009)"><path
           d="m 14958,6710.76 v 1874.59 c 0.3,0 0.5,0 0.8,0 100.7,0.01 212.8,33.38 314,62.67 14.8,4.3 27.4,6.31 37.9,6.31 130.7,0 -39.1,-308.34 139.5,-429.04 193.1,-130.48 459.3,-67.85 355,-208.76 -104.4,-140.91 -297.5,-422.73 -36.6,-527.11 29.5,-11.79 59.2,-17.45 88.9,-17.45 26.2,0 52.5,4.43 78.4,12.96 -238,-348.08 -578.4,-620.61 -977.9,-774.17 m 1342,1953.85 c 0,192.48 -26,379 -74.7,556.03 -17.1,7.87 -35,11.94 -53.3,11.94 -1.1,0 -2.2,-0.01 -3.3,-0.04 0,0 9,46.01 -159.4,46.01 -28,0 -61,-1.28 -99.8,-4.26 -8.7,-0.68 -17.2,-1 -25.4,-1 -118.9,0 -180.9,68.35 -240.1,136.69 -59.2,68.35 -115.5,136.69 -222.9,136.69 -7.5,0 -15.1,-0.33 -23,-1 -245.3,-20.87 -219.3,-161.78 -417.6,-177.44 -157.2,-12.42 -288.2,-74.08 -286.3,-179.78 h -1818.9 c -9.6,18.08 -14.4,39.11 -11.9,64.96 7.3,73.22 53.2,100.19 131.5,100.19 70.6,0 167.4,-21.88 286.1,-51.55 29,-7.27 53.2,-10.6 73.2,-10.6 152.5,0 68.6,192.97 142.4,309.85 83.5,132.25 459.3,34.76 445.4,125.26 -10.9,70.82 -98.5,86.21 -192.8,86.21 -26.1,0 -52.9,-1.18 -78.6,-2.7 -10,-0.6 -19.7,-0.94 -28.8,-0.94 -98.3,0 -142.2,39.58 -110.4,230.57 34.8,208.8 -62.6,118.3 -208.7,299.2 -66.4,82.3 -144.5,107 -209.7,109.4 -45.4,-27.8 -89.8,-57.5 -132.7,-88.7 -90.4,-65.4 -175.1,-137.9 -253.6,-216.6 -259.6,-259.93 -451.1,-587.69 -545.7,-954.55 v 0 c 94.6,366.86 286.1,694.62 545.7,954.55 78.5,78.7 163.2,151.2 253.6,216.6 42.9,31.2 87.3,60.9 132.7,88.7 318.4,196 693.2,308.9 1094.6,308.9 53.1,0 105.9,-2 158.1,-6 73.7,-5.4 146.2,-14.7 217.5,-27.6 300.2,-54.4 577.9,-172.9 818.8,-340.7 h 0.1 c 150.1,-104.5 285.8,-228.1 403.7,-367.4 61.9,-73.19 118.9,-150.64 170.3,-231.95 32,-50.62 62,-102.61 89.8,-156.05 66.7,-128.38 120.3,-264.59 159.4,-406.86 48.7,-177.03 74.7,-363.55 74.7,-556.03 v 0 m -670.7,1079.03 c 60,0 111.2,-35.18 164,-70.37 52.9,-35.18 107.5,-70.37 174.2,-70.37 29.9,0 62.4,7.13 98.4,24.6 -27.8,53.44 -57.8,105.43 -89.8,156.05 -51.4,81.31 -108.4,158.76 -170.3,231.95 -117.9,139.3 -253.6,262.9 -403.7,367.4 h -0.1 c -14.2,-1.3 -27.8,-4.4 -40.5,-9.2 0,0 -24.7,3.9 -59.4,3.9 -69.6,0 -179.5,-15.5 -212,-108.3 -48.7,-139.1 -278.3,-90.5 -292.2,-264.4 -4.6,-57.98 26.3,-74.22 75.3,-74.21 31.1,0 69.6,6.57 110.9,13.14 41.2,6.58 85.3,13.15 127.6,13.15 48.4,0 94.4,-8.59 131.5,-35.55 123.3,-89.72 125.2,-220.08 222.9,-220.07 23.6,0.01 52.8,7.6 90.6,25.2 25.8,12.02 49.9,17.08 72.6,17.08 m -1891,706.46 c -126.4,0 -170.5,-106.7 -67.7,-222.5 87.7,-98.8 162,-270.23 238.9,-270.23 19.3,0 38.7,10.74 58.5,36.02 99.2,126.31 80.1,222.01 196.7,234.21 0,0 118.3,170.7 -69.6,221 -53.8,14.4 -91.9,19.3 -122.3,19.3 -32.1,0 -55.6,-5.4 -80,-10.9 -24.3,-5.4 -49.6,-10.8 -85,-10.8 -12.9,0 -27.2,0.7 -43.3,2.4 -9.1,1 -17.8,1.5 -26.2,1.5"
           style="fill:#e3edfc;fill-opacity:1;fill-rule:nonzero;stroke:none"
           id="path24" /></g><g
         id="g26"
         transform="scale(1.26723)"><path
           d="m 15037.9,10731.8 h -810.8 c 110.4,428.5 334.1,811.3 637.3,1114.9 91.6,91.9 190.6,176.5 296.1,253 50.2,36.4 102,71.1 155.1,103.6 76.1,-2.8 167.3,-31.7 244.9,-127.8 170.6,-211.3 284.4,-105.7 243.8,-349.5 -37.3,-223 14.1,-269.3 128.8,-269.3 10.7,0 22,0.4 33.7,1.1 30,1.8 61.3,3.2 91.8,3.2 110.2,0 212.5,-18 225.1,-100.7 16.3,-105.7 -422.6,8.2 -520.1,-146.3 -86.2,-136.5 11.8,-361.9 -166.3,-361.9 -23.5,0 -51.6,3.9 -85.6,12.4 -138.6,34.6 -251.7,60.2 -334.1,60.2 -91.4,0 -145,-31.5 -153.5,-117 -3,-30.2 2.6,-54.8 13.8,-75.9"
           style="fill:#d3e0fc;fill-opacity:1;fill-rule:nonzero;stroke:none"
           id="path28" /></g><g
         id="g30"
         transform="scale(1.48009)"><path
           d="m 15857.5,7471.97 c -29.7,0 -59.4,5.66 -88.9,17.45 -260.9,104.38 -67.8,386.2 36.6,527.11 104.3,140.91 -161.9,78.28 -355,208.76 -178.6,120.7 -8.8,429.04 -139.5,429.04 -10.5,0 -23.1,-2.01 -37.9,-6.31 -101.2,-29.29 -213.3,-62.66 -314,-62.67 -0.3,0 -0.5,0 -0.8,0 v 396.73 c 0,114.04 -82.2,206.37 -183.7,206.37 h -80.1 c -1.9,105.7 129.1,167.36 286.3,179.78 198.3,15.66 172.3,156.57 417.6,177.44 7.9,0.67 15.5,1 23,1 107.4,0 163.7,-68.34 222.9,-136.69 59.2,-68.34 121.2,-136.69 240.1,-136.69 8.2,0 16.7,0.32 25.4,1 38.8,2.98 71.8,4.26 99.8,4.26 168.4,0 159.4,-46.01 159.4,-46.01 1.1,0.03 2.2,0.04 3.3,0.04 18.3,0 36.2,-4.07 53.3,-11.94 48.7,-177.03 74.7,-363.55 74.7,-556.03 v 0 c 0,-128.59 -11.6,-254.57 -33.9,-376.91 -53.4,-293.5 -168,-565.62 -330.2,-802.77 v 0 c -25.9,-8.53 -52.2,-12.96 -78.4,-12.96"
           style="fill:#d3e0fc;fill-opacity:1;fill-rule:nonzero;stroke:none"
           id="path32" /></g><g
         id="g34"
         transform="scale(1.45883)"><path
           d="m 16200.1,9742.83 c -67.6,0 -122.9,35.7 -176.6,71.4 -53.6,35.7 -105.6,71.4 -166.5,71.4 -23,0 -47.4,-5.14 -73.6,-17.34 -38.4,-17.85 -68,-25.55 -91.9,-25.56 -99.1,-0.01 -101,132.25 -226.1,223.27 -37.7,27.4 -84.4,36.1 -133.5,36.1 -42.9,0 -87.6,-6.7 -129.5,-13.4 -41.8,-6.6 -80.9,-13.3 -112.5,-13.3 -49.7,0 -81.1,16.5 -76.4,75.3 14.1,176.5 247.1,127.1 296.5,268.3 33,94.1 144.5,109.8 215.1,109.8 35.2,0 60.3,-3.9 60.3,-3.9 12.8,4.8 26.6,8 41,9.3 h 0.2 c 152.2,-106 289.9,-231.4 409.5,-372.8 62.8,-74.2 120.6,-152.8 172.8,-235.28 32.5,-51.36 62.9,-104.11 91.1,-158.33 -36.5,-17.72 -69.4,-24.96 -99.9,-24.96"
           style="fill:#d3e0fc;fill-opacity:1;fill-rule:nonzero;stroke:none"
           id="path36" /></g><g
         id="g38"
         transform="scale(1.29693)"><path
           d="m 15873.8,11363.6 c -87.8,0 -172.6,195.6 -272.7,308.3 -117.3,132.2 -66.9,253.9 77.3,253.9 9.6,0 19.6,-0.5 30,-1.6 18.3,-2 34.7,-2.8 49.4,-2.8 40.4,0 69.2,6.2 96.9,12.4 27.9,6.2 54.7,12.4 91.3,12.4 34.7,0 78.2,-5.6 139.6,-22 214.4,-57.5 79.4,-252.3 79.4,-252.3 -133,-13.9 -111.2,-123.1 -224.4,-267.2 -22.6,-28.9 -44.8,-41.1 -66.8,-41.1"
           style="fill:#d3e0fc;fill-opacity:1;fill-rule:nonzero;stroke:none"
           id="path40" /></g><g
         id="g42"
         transform="scale(1.35823)"><path
           d="M 16300,9787.9 V 2690.11 c 0,-124.13 -89.6,-224.85 -200.2,-224.85 H 5859.33 c -110.52,0 -200.17,100.72 -200.17,224.85 V 9787.9 c 0,124.27 89.65,224.9 200.17,224.9 H 16099.8 c 110.6,0 200.2,-100.63 200.2,-224.9"
           style="fill:#aec3ff;fill-opacity:1;fill-rule:nonzero;stroke:none"
           id="path44" /></g><g
         id="g46"
         transform="scale(1.35823)"><path
           d="M 16300,9812.63 V 9276.71 H 5659.16 v 535.92 c 0,110.61 89.65,200.17 200.17,200.17 H 16099.8 c 110.6,0 200.2,-89.56 200.2,-200.17"
           style="fill:#739af0;fill-opacity:1;fill-rule:nonzero;stroke:none"
           id="path48" /></g><path
         d="m 8128.57,13099.8 c 0,69.9 56.67,126.6 126.57,126.6 69.9,0 126.57,-56.7 126.57,-126.6 0,-69.9 -56.67,-126.5 -126.57,-126.5 -69.9,0 -126.57,56.6 -126.57,126.5"
         style="fill:#dfebfd;fill-opacity:1;fill-rule:nonzero;stroke:none"
         id="path50" /><path
         d="m 8627.31,13099.8 c 0,69.9 56.66,126.6 126.57,126.6 69.9,0 126.57,-56.7 126.57,-126.6 0,-69.9 -56.67,-126.5 -126.57,-126.5 -69.91,0 -126.57,56.6 -126.57,126.5"
         style="fill:#dfebfd;fill-opacity:1;fill-rule:nonzero;stroke:none"
         id="path52" /><path
         d="m 9138.64,13099.8 c 0,69.9 56.66,126.6 126.57,126.6 69.9,0 126.57,-56.7 126.57,-126.6 0,-69.9 -56.67,-126.5 -126.57,-126.5 -69.91,0 -126.57,56.6 -126.57,126.5"
         style="fill:#dfebfd;fill-opacity:1;fill-rule:nonzero;stroke:none"
         id="path54" /><g
         id="g56"
         transform="scale(1.04217)"><path
           d="M 16300,4630.04 H 14837.4 V 6092.66 H 16300 V 4630.04"
           style="fill:#cddbfc;fill-opacity:1;fill-rule:nonzero;stroke:none"
           id="path58" /></g><g
         id="g60"
         transform="scale(1.03525)"><path
           d="m 15047.3,4829.19 434.8,784.16 319.9,-436.22 159.6,174.55 338.4,-522.49 h -1252.7"
           style="fill:#739af0;fill-opacity:1;fill-rule:nonzero;stroke:none"
           id="path62" /></g><g
         id="g64"
         transform="scale(1.01076)"><path
           d="m 16069.5,5864.59 c 0,63.62 51.6,115.26 115.2,115.26 63.8,0 115.3,-51.64 115.3,-115.26 0,-63.71 -51.5,-115.26 -115.3,-115.26 -63.6,0 -115.2,51.55 -115.2,115.26"
           style="fill:#739af0;fill-opacity:1;fill-rule:nonzero;stroke:none"
           id="path66" /></g><g
         id="g68"
         transform="scale(1.18182)"><path
           d="M 16300,5869.75 H 13084.1 V 7733.74 H 16300 V 5869.75"
           style="fill:#cddbfc;fill-opacity:1;fill-rule:nonzero;stroke:none"
           id="path70" /></g><g
         id="g72"
         transform="scale(1.09155)"><path
           d="M 15514.2,7881.3 V 6847.35 l 785.8,516.98 -785.8,516.97"
           style="fill:#739af0;fill-opacity:1;fill-rule:nonzero;stroke:none"
           id="path74" /></g><g
         id="g76"
         transform="scale(1.2885)"><path
           d="m 16300,8366.39 c 0,-192.91 -77,-368.29 -201.2,-495.48 -124.2,-127.24 -295.5,-206.01 -483.9,-206.01 H 7632.82 c -407.4,0 -740.72,315.67 -740.72,701.49 0,192.92 83.25,368.29 217.6,495.41 134.2,127.19 319.42,206.04 523.12,206.04 h 7982.08 c 376.8,0 685.1,-315.63 685.1,-701.45"
           style="fill:#ebf3fa;fill-opacity:1;fill-rule:nonzero;stroke:none"
           id="path78" /></g><g
         id="g80"
         transform="scale(1.2885)"><path
           d="m 16300,8366.39 c 0,-192.91 -77,-368.29 -201.2,-495.48 -124.2,-127.24 -295.5,-206.01 -483.9,-206.01 h -1444.4 v 1402.94 h 1444.4 c 376.8,0 685.1,-315.63 685.1,-701.45"
           style="fill:#f99746;fill-opacity:1;fill-rule:nonzero;stroke:none"
           id="path82" /></g><g
         id="g84"
         transform="scale(1.24816)"><path
           d="m 15698.9,8990.44 c -136.6,-101.14 -165.5,-294.58 -64.4,-431.2 49,-66.19 120.9,-109.33 202.3,-121.48 81.4,-12.14 162.8,8.14 228.9,57.12 136.6,101.15 165.5,294.58 64.4,431.21 -101.1,136.63 -294.6,165.49 -431.2,64.35 z m 184.2,-616.92 c -18.4,0 -36.8,1.36 -55.3,4.12 -97.5,14.55 -183.5,66.2 -242.1,145.43 -121.1,163.56 -86.6,395.14 77,516.22 v 0.01 c 163.6,121.08 395.1,86.53 516.2,-77.05 121.1,-163.56 86.6,-395.14 -77,-516.22 -64.2,-47.54 -140.4,-72.51 -218.8,-72.51"
           style="fill:#ffffff;fill-opacity:1;fill-rule:nonzero;stroke:none"
           id="path86" /></g><g
         id="g88"
         transform="scale(1.19672)"><path
           d="m 15877.8,8570.27 -37.8,50.95 422.2,312.56 37.8,-50.96 -422.2,-312.55"
           style="fill:#ffffff;fill-opacity:1;fill-rule:nonzero;stroke:none"
           id="path90" /></g><g
         id="g92"
         transform="scale(1.17986)"><path
           d="m 15936.6,8608.38 v 0 c -18.9,25.49 -13.4,61.45 12,80.31 l 252.2,186.71 c 25.5,18.87 61.5,13.5 80.4,-11.98 18.8,-25.49 13.5,-61.44 -12.1,-80.32 L 16017,8596.39 c -25.5,-18.87 -61.4,-13.49 -80.4,11.99"
           style="fill:#ffffff;fill-opacity:1;fill-rule:nonzero;stroke:none"
           id="path94" /></g><path
         d="m 11922.5,12025.7 c -19.5,-22.2 -21.9,-47.1 -12.3,-73.6 l 0.1,-0.4 c 17.8,-49.1 76.5,-103.9 144.6,-158.7 8.7,-7 16.5,-13.4 23.2,-19.3 1.8,-1.6 3.6,-3.1 5.2,-4.7 1.4,-1.2 2.7,-2.5 4,-3.6 63.6,-58.6 39.6,-72.1 153.8,-191 130.2,-135.5 219.8,-138 245.3,-125.7 21.6,10.5 -22.2,82.4 -70.8,163.2 -2.3,3.9 -4.6,7.8 -7,11.8 -6.5,10.7 -12.9,21.6 -19.3,32.4 -56.9,97.2 -42.3,142.8 -28.7,287.5 11,117.5 183.1,656.6 183.1,656.6 l -249.6,43.1 c 0,0 -75.3,-429.3 -158.1,-495.4 -44.3,-35.2 -93.8,-35.6 -136.4,-61.8 -3,-1.8 -5.9,-3.6 -8.8,-5.5 -24.2,-16.1 -48.9,-32.6 -68.3,-54.9"
         style="fill:#ffb27d;fill-opacity:1;fill-rule:nonzero;stroke:none"
         id="path96" /><path
         d="m 11922.5,12025.7 c -19.5,-22.2 -21.9,-47.1 -12.3,-73.6 l 0.1,-0.4 c 21.8,-49 79,-103.6 144.8,-158.2 8.7,-7.1 16.2,-13.7 23,-19.8 1.8,-1.6 3.6,-3.1 5.2,-4.7 1.4,-1.2 2.7,-2.5 4,-3.6 63.6,-58.6 39.6,-72.1 153.8,-191 130.2,-135.5 219.8,-138 245.3,-125.7 21.6,10.5 -22.2,82.4 -70.8,163.2 -25.3,9.3 -143,57.2 -232,171.1 -75.5,96.4 -126.8,219.4 -178.2,294.8 -5.6,1.1 -9,1.7 -14.6,2.8 -24.2,-16.1 -48.9,-32.6 -68.3,-54.9"
         style="fill:#233862;fill-opacity:1;fill-rule:nonzero;stroke:none"
         id="path98" /><path
         d="m 13934.6,12180.9 c 15.4,-77.1 125.2,-64.2 247.9,-34.3 122.7,29.9 93.5,-5.7 268.1,13.6 174.6,19.2 227.5,84.3 232.8,110.2 4.8,23.1 -81.5,31.2 -174,41.9 -11.6,1.3 -23.3,2.8 -35,4.2 -104.5,13.2 -180.9,80.6 -275.8,136 -89.9,52.5 -223.9,266.2 -223.9,266.2 l -239.5,-18.9 c 0,0 125.6,-190.9 174.2,-273.9 28.5,-48.8 27,-113.3 23.4,-163.1 -1.8,-27.1 -3.6,-54.8 1.8,-81.9"
         style="fill:#ffb27d;fill-opacity:1;fill-rule:nonzero;stroke:none"
         id="path100" /><path
         d="m 14182.5,12146.6 c 122.7,29.9 93.5,-5.7 268.1,13.6 174.6,19.2 227.5,84.3 232.8,110.2 4.8,23.1 -81.5,31.2 -174,41.9 l -0.8,-1.7 c 0,0 -104.8,-74.2 -250.1,-77.7 -118.4,-2.8 -243.9,31.2 -325.7,29.9 -1.8,-27.1 -3.6,-54.8 1.8,-81.9 15.4,-77.1 125.2,-64.2 247.9,-34.3"
         style="fill:#233862;fill-opacity:1;fill-rule:nonzero;stroke:none"
         id="path102" /><path
         d="m 13017.6,13712.1 -224,-602.2 -292.5,-786.3 c 0,0 -79.3,-7.6 -155.2,14.3 -69.9,20.2 -150.1,73.1 -150.1,73.1 0,0 81.4,844.3 233,1329 38.8,124.4 82.3,225 130.3,281.6 234.7,277.2 458.5,-309.5 458.5,-309.5"
         style="fill:#f4904d;fill-opacity:1;fill-rule:nonzero;stroke:none"
         id="path104" /><path
         d="m 12790.4,14668.7 c -127.4,41.1 -459.8,0.8 -820.4,-64.4 -99.6,-18 -200,27.6 -252.5,114.1 v 0 l -907.4,71.2 c 0,0 -299.6,-663.9 -135.9,-1087.1 24.1,-62.1 77,-101 158.6,-102.3 0,0 548.3,-1 723.7,-1 451.2,-0.2 955.1,309.8 1020.3,322.9 106.7,21.3 149.3,-192.1 255.9,-416.1 106.6,-224.1 1002.3,-992.4 1002.3,-992.4 0,0 137.7,-1.4 194.6,19.9 61.2,22.9 83.6,52.7 83.6,52.7 0,0 -992.2,1975.7 -1322.8,2082.5"
         style="fill:#ffa561;fill-opacity:1;fill-rule:nonzero;stroke:none"
         id="path106" /><g
         id="g108"
         transform="scale(1.07266)"><path
           d="m 10834.8,16205.7 c -62.7,37.4 -124,43.1 -161.6,42.1 -26.1,-0.8 -52.2,1 -78,4.7 -322.8,47.5 -517.4,-421.4 -528.9,-563.1 -20.9,-260.2 -158.64,-299.8 -352.37,-462.6 -388.57,-326.6 -274.74,-706.2 -62.46,-847.4 127.44,-84.6 352.13,-0.1 352.13,-0.1 3.2,-2.2 614.3,341.4 915.7,507.2 451.5,64.1 96.9,1211.1 -84.5,1319.2"
           style="fill:#233862;fill-opacity:1;fill-rule:nonzero;stroke:none"
           id="path110" /></g><g
         id="g112"
         transform="scale(1.02011)"><path
           d="m 11216.2,15801.8 c 1.5,-0.9 -155.8,-54.5 -260.9,-7.9 -98.9,43.7 -173.8,206.5 -172.4,206.6 45,2.1 94.4,41.4 132.6,299.5 l 19.2,-6.9 322.1,-116 c 0,0 -23.4,-103.4 -38.5,-201.8 -12.8,-82.6 -19.6,-161.8 -2.1,-173.5"
           style="fill:#ffb27d;fill-opacity:1;fill-rule:nonzero;stroke:none"
           id="path114" /></g><g
         id="g116"
         transform="scale(1.01968)"><path
           d="m 11261.6,16183.9 c 0,0 -13,-55.8 -31.8,-160 -185.1,33.4 -264.5,176 -290.5,276.1 l 322.3,-116.1"
           style="fill:#ed975d;fill-opacity:1;fill-rule:nonzero;stroke:none"
           id="path118" /></g><g
         id="g120"
         transform="scale(1.05602)"><path
           d="m 10920.4,15527.9 c 0,0 -425.9,57.3 -386.1,321.9 39.8,264.6 11.6,450.2 285.1,424.8 273.6,-25.4 311.1,-134.3 319.3,-225.8 8.2,-91.6 -106.6,-529 -218.3,-520.9"
           style="fill:#ffb27d;fill-opacity:1;fill-rule:nonzero;stroke:none"
           id="path122" /></g><g
         id="g124"
         transform="scale(1.05675)"><path
           d="m 11115.5,16182.7 c 0,0 -272.4,-234.7 -457.7,-253.5 -185.3,-18.9 -255.4,40.6 -255.4,40.6 0,0 109.2,90.6 175,236.9 19.4,43.1 60.4,72.7 107.5,76.8 132.3,11.4 383,16.5 430.6,-100.8"
           style="fill:#233862;fill-opacity:1;fill-rule:nonzero;stroke:none"
           id="path126" /></g><g
         id="g128"
         transform="scale(1.05862)"><path
           d="m 10926,16175.1 c 0,0 90.9,-88 119.5,-153.2 27.6,-63 35.8,-213.5 13.8,-273.3 0,0 141.8,275.5 61.6,409.4 -85,142 -194.9,17.1 -194.9,17.1"
           style="fill:#233862;fill-opacity:1;fill-rule:nonzero;stroke:none"
           id="path130" /></g><g
         id="g132"
         transform="scale(1.00249)"><path
           d="m 11790.8,15418.7 c -13.9,-907.9 -4,-718.2 -103.4,-804.3 -23.9,-20.8 -91.1,-33.1 -179.7,-38.9 -278.4,-18.4 -767.7,27.6 -786.3,79.1 -64.2,178 -18.8,233.3 -72.4,505.9 -5.4,29 -12.4,60.4 -20.5,94.5 -44.6,187.2 -88.1,250.9 70.5,551.6 143.9,272.4 293.2,493.4 306.6,485.4 379.1,-225.2 409.8,-36 409.8,-36 0,0 382.2,-394.5 375.4,-837.3"
           style="fill:#afcdfb;fill-opacity:1;fill-rule:nonzero;stroke:none"
           id="path134" /></g><path
         d="m 12793.6,13109.9 -292.5,-786.3 c 0,0 -79.3,-7.6 -155.2,14.3 -69.9,20.2 -150.1,73.1 -150.1,73.1 0,0 81.4,844.3 233,1329 l 364.8,-630.1"
         style="fill:#ffa561;fill-opacity:1;fill-rule:nonzero;stroke:none"
         id="path136" /><path
         d="m 11443.9,16296.6 c 0,0 391.1,-66.4 436.9,-234.9 45.9,-168.4 196.8,-1190.6 196.8,-1190.6 0,0 -110.4,-107.7 -202.2,-15.8 -91.8,91.9 -288.7,956.5 -288.7,956.5 l -142.8,484.8"
         style="fill:#afcdfb;fill-opacity:1;fill-rule:nonzero;stroke:none"
         id="path138" /><path
         d="m 11536.4,14611.8 c -279.1,-18.4 -769.6,27.8 -788.3,79.4 -64.3,178.4 -18.8,233.9 -72.5,507.1 l 134.8,379 c 0,0 -22.4,-422.1 102,-533.1 124.3,-111.1 509.6,-214.5 570.1,-307.3 29.2,-44.5 48.4,-89.2 53.9,-125.1"
         style="fill:#95b3ef;fill-opacity:1;fill-rule:nonzero;stroke:none"
         id="path140" /><path
         d="m 11216.7,14789.5 c 0,0 275.4,61.2 319.8,36.8 44.4,-24.5 153,-113.5 166.6,-144.5 13.5,-31 -98.9,23.5 -135.5,33.4 -23.7,6.3 -86.1,-15.3 -117,-25.6 -130,-43.3 -209.6,-21 -209.6,-21 l -24.3,120.9"
         style="fill:#ffb27d;fill-opacity:1;fill-rule:nonzero;stroke:none"
         id="path142" /><g
         id="g144"
         transform="scale(1.00202)"><path
           d="m 11010.7,16300 c 0,0 -369.1,-22.6 -496.8,-200.7 -179.8,-250.7 -536.93,-1319.3 -332.5,-1461.9 230.1,-160.6 1047.7,-42.4 1047.7,-42.4 0,0 27.2,127.2 -10.6,188.7 -37.8,61.5 -652.9,161.1 -681.4,189.5 -28.3,28.4 355.1,553.4 355.1,638.6 0.1,85.2 118.5,688.2 118.5,688.2"
           style="fill:#afcdfb;fill-opacity:1;fill-rule:nonzero;stroke:none"
           id="path146" /></g><path
         d="m 11549.8,14749.6 c 0,0 57.7,-74.4 76.6,-83.3 18.9,-8.9 31.1,-6.7 31.1,-6.7 l -38.8,70 -68.9,20"
         style="fill:#ffb27d;fill-opacity:1;fill-rule:nonzero;stroke:none"
         id="path148" /><path
         d="m 11536.5,14826.3 167.7,-81.6 c 0,0 -7.1,-11.6 -27.8,-10.7 -20.6,1 -72.7,20 -72.7,20 l -67.2,72.3"
         style="fill:#ffb27d;fill-opacity:1;fill-rule:nonzero;stroke:none"
         id="path150" /><path
         d="m 12968.8,14634.3 -1752.1,0.6 v -38.7 l 1736.5,-0.6 15.6,38.7"
         style="fill:#233862;fill-opacity:1;fill-rule:nonzero;stroke:none"
         id="path152" /><path
         d="m 11626.4,14596.1 1326.8,-0.5 399.5,992.4 -1324.8,0.4 -401.5,-992.3"
         style="fill:#233862;fill-opacity:1;fill-rule:nonzero;stroke:none"
         id="path154" /><path
         d="m 12618.4,15092 c 10,34.9 -10.1,63.2 -45,63.2 -34.9,0 -71.3,-28.3 -81.3,-63.2 -10,-34.9 10.1,-63.1 45,-63.2 34.9,0 71.3,28.3 81.3,63.2"
         style="fill:#ffffff;fill-opacity:1;fill-rule:nonzero;stroke:none"
         id="path156" /><path
         d="M 11711.9,8715.5 H 9316.23 c -49.86,0 -90.28,40.4 -90.28,90.2 v 38.1 c 0,49.8 40.42,90.2 90.28,90.2 h 2395.67 c 49.8,0 90.3,-40.4 90.3,-90.2 v -38.1 c 0,-49.8 -40.5,-90.2 -90.3,-90.2"
         style="fill:#f99746;fill-opacity:1;fill-rule:nonzero;stroke:none"
         id="path158" /><path
         d="M 10482.6,7963.9 H 9300.52 c -41.18,0 -74.57,33.4 -74.57,74.6 0,41.2 33.39,74.6 74.57,74.6 h 1182.08 c 41.1,0 74.5,-33.4 74.5,-74.6 0,-41.2 -33.4,-74.6 -74.5,-74.6"
         style="fill:#739af0;fill-opacity:1;fill-rule:nonzero;stroke:none"
         id="path160" /><path
         d="M 11387.7,8276.7 H 9295.35 c -38.33,0 -69.4,31.1 -69.4,69.4 v 10.4 c 0,38.3 31.07,69.4 69.4,69.4 h 2092.35 c 38.3,0 69.4,-31.1 69.4,-69.4 v -10.4 c 0,-38.3 -31.1,-69.4 -69.4,-69.4"
         style="fill:#739af0;fill-opacity:1;fill-rule:nonzero;stroke:none"
         id="path162" /><path
         d="m 13676.8,8276.7 h -1949.3 c -37.1,0 -67.1,30 -67.1,67.1 v 15 c 0,37 30,67.1 67.1,67.1 h 1949.3 c 37,0 67,-30.1 67,-67.1 v -15 c 0,-37.1 -30,-67.1 -67,-67.1"
         style="fill:#739af0;fill-opacity:1;fill-rule:nonzero;stroke:none"
         id="path164" /><path
         d="m 11956.9,7963.9 h -1182 c -41.2,0 -74.6,33.4 -74.6,74.6 0,41.2 33.4,74.6 74.6,74.6 h 1182 c 41.2,0 74.6,-33.4 74.6,-74.6 0,-41.2 -33.4,-74.6 -74.6,-74.6"
         style="fill:#739af0;fill-opacity:1;fill-rule:nonzero;stroke:none"
         id="path166" /><path
         d="m 14629.1,8715.5 h -2395.7 c -49.9,0 -90.3,40.4 -90.3,90.2 v 38.1 c 0,49.8 40.4,90.2 90.3,90.2 h 2395.7 c 49.8,0 90.2,-40.4 90.2,-90.2 v -38.1 c 0,-49.8 -40.4,-90.2 -90.2,-90.2"
         style="fill:#f99746;fill-opacity:1;fill-rule:nonzero;stroke:none"
         id="path168" /><path
         d="M 11711.9,4802 H 9316.23 c -49.86,0 -90.28,40.5 -90.28,90.3 v 38 c 0,49.9 40.42,90.3 90.28,90.3 h 2395.67 c 49.8,0 90.3,-40.4 90.3,-90.3 v -38 c 0,-49.8 -40.5,-90.3 -90.3,-90.3"
         style="fill:#f99746;fill-opacity:1;fill-rule:nonzero;stroke:none"
         id="path170" /><path
         d="M 10482.6,4050.5 H 9300.53 c -41.19,0 -74.58,33.4 -74.58,74.5 0,41.2 33.39,74.6 74.58,74.6 h 1182.07 c 41.1,0 74.5,-33.4 74.5,-74.6 0,-41.1 -33.4,-74.5 -74.5,-74.5"
         style="fill:#739af0;fill-opacity:1;fill-rule:nonzero;stroke:none"
         id="path172" /><path
         d="M 11387.7,4363.3 H 9295.35 c -38.33,0 -69.4,31.1 -69.4,69.4 v 10.3 c 0,38.4 31.07,69.4 69.4,69.4 h 2092.35 c 38.3,0 69.4,-31 69.4,-69.4 v -10.3 c 0,-38.3 -31.1,-69.4 -69.4,-69.4"
         style="fill:#739af0;fill-opacity:1;fill-rule:nonzero;stroke:none"
         id="path174" /><path
         d="m 13676.8,4363.3 h -1949.3 c -37.1,0 -67.1,30 -67.1,67.1 v 15 c 0,37 30,67 67.1,67 h 1949.3 c 37,0 67,-30 67,-67 v -15 c 0,-37.1 -30,-67.1 -67,-67.1"
         style="fill:#739af0;fill-opacity:1;fill-rule:nonzero;stroke:none"
         id="path176" /><path
         d="m 11956.9,4050.5 h -1182 c -41.2,0 -74.6,33.4 -74.6,74.5 0,41.2 33.4,74.6 74.6,74.6 h 1182 c 41.2,0 74.6,-33.4 74.6,-74.6 0,-41.1 -33.4,-74.5 -74.6,-74.5"
         style="fill:#739af0;fill-opacity:1;fill-rule:nonzero;stroke:none"
         id="path178" /><path
         d="m 14629.1,4802 h -2395.7 c -49.9,0 -90.3,40.5 -90.3,90.3 v 38 c 0,49.9 40.4,90.3 90.3,90.3 h 2395.7 c 49.8,0 90.2,-40.4 90.2,-90.3 v -38 c 0,-49.8 -40.4,-90.3 -90.2,-90.3"
         style="fill:#f99746;fill-opacity:1;fill-rule:nonzero;stroke:none"
         id="path180" /><path
         d="M 11711.9,6758.8 H 9316.23 c -49.86,0 -90.28,40.4 -90.28,90.2 v 38 c 0,49.9 40.42,90.3 90.28,90.3 h 2395.67 c 49.8,0 90.3,-40.4 90.3,-90.3 v -38 c 0,-49.8 -40.5,-90.2 -90.3,-90.2"
         style="fill:#f99746;fill-opacity:1;fill-rule:nonzero;stroke:none"
         id="path182" /><path
         d="M 10482.6,6007.2 H 9300.53 c -41.19,0 -74.58,33.4 -74.58,74.6 0,41.1 33.39,74.5 74.58,74.5 h 1182.07 c 41.1,0 74.5,-33.4 74.5,-74.5 0,-41.2 -33.4,-74.6 -74.5,-74.6"
         style="fill:#739af0;fill-opacity:1;fill-rule:nonzero;stroke:none"
         id="path184" /><path
         d="M 11387.7,6320 H 9295.35 c -38.33,0 -69.4,31.1 -69.4,69.4 v 10.4 c 0,38.3 31.07,69.4 69.4,69.4 h 2092.35 c 38.3,0 69.4,-31.1 69.4,-69.4 v -10.4 c 0,-38.3 -31.1,-69.4 -69.4,-69.4"
         style="fill:#739af0;fill-opacity:1;fill-rule:nonzero;stroke:none"
         id="path186" /><path
         d="m 13676.8,6320 h -1949.3 c -37.1,0 -67.1,30 -67.1,67.1 v 15 c 0,37 30,67.1 67.1,67.1 h 1949.3 c 37,0 67,-30.1 67,-67.1 v -15 c 0,-37.1 -30,-67.1 -67,-67.1"
         style="fill:#739af0;fill-opacity:1;fill-rule:nonzero;stroke:none"
         id="path188" /><path
         d="m 11956.9,6007.2 h -1182 c -41.2,0 -74.6,33.4 -74.6,74.6 0,41.1 33.4,74.5 74.6,74.5 h 1182 c 41.2,0 74.6,-33.4 74.6,-74.5 0,-41.2 -33.4,-74.6 -74.6,-74.6"
         style="fill:#739af0;fill-opacity:1;fill-rule:nonzero;stroke:none"
         id="path190" /><path
         d="m 14629.1,6758.7 h -2395.7 c -49.9,0 -90.3,40.5 -90.3,90.3 v 38 c 0,49.9 40.4,90.3 90.3,90.3 h 2395.7 c 49.8,0 90.2,-40.4 90.2,-90.3 v -38 c 0,-49.8 -40.4,-90.3 -90.2,-90.3"
         style="fill:#f99746;fill-opacity:1;fill-rule:nonzero;stroke:none"
         id="path192" /><path
         d="m 7900.93,7811.2 c 0,0 27.01,60.8 44.51,89.6 17.49,28.7 92.24,113 104.96,93.9 12.73,-19 63.62,-147.5 36.58,-183.5 -27.03,-35.9 1.75,-98.5 -132.72,-136.4 l -53.33,136.4"
         style="fill:#ffb27d;fill-opacity:1;fill-rule:nonzero;stroke:none"
         id="path194" /><path
         d="m 6406.62,8194.9 c 0,0 688.34,-574.6 956.74,-521.4 209.87,41.6 531.98,152 531.98,152 l 64.41,-164.7 c 0,0 -288.86,-391.9 -590.03,-394.4 -470.76,-4.1 -818.56,203.8 -818.56,203.8 l -144.54,724.7"
         style="fill:#95b3ef;fill-opacity:1;fill-rule:nonzero;stroke:none"
         id="path196" /><path
         d="m 5199.42,2134.3 c 0,0 19.98,-322.4 82.35,-327 8.29,-0.6 316.3,-0.6 316.3,-0.6 l 393.18,2.3 c 0,0 -2.58,94.7 -117.5,114.7 -114.94,20.1 -307.3,100.8 -376.92,252.7 -73.25,159.8 -297.41,-42.1 -297.41,-42.1"
         style="fill:#1c4b8e;fill-opacity:1;fill-rule:nonzero;stroke:none"
         id="path198" /><path
         d="m 5176.76,2111.9 c 0,0 119.52,-40 212.84,-40 104.09,0 198.7,28.4 198.7,28.4 0,0 22.5,217.6 146.33,697.1 64.93,251.3 157.64,574.4 289.54,975.9 364.71,1109.8 475.62,1759 485.74,1820.4 0.54,3.3 0.75,4.9 0.75,4.9 l -1.18,0.5 -1121.25,492.3 c 0,0 138.59,-1529.4 -38.22,-2116.5 -24.77,-82 -45.98,-177.6 -64.18,-281.2 C 5174.17,3056 5176.76,2111.9 5176.76,2111.9"
         style="fill:#ffa561;fill-opacity:1;fill-rule:nonzero;stroke:none"
         id="path200" /><path
         d="m 5734.63,2797.4 c 64.93,251.3 157.64,574.4 289.54,975.9 364.71,1109.8 475.62,1759 485.74,1820.4 -0.11,1.9 -0.22,3.6 -0.43,5.4 l -1121.25,492.3 c 0,0 138.59,-1529.4 -38.22,-2116.5 -24.77,-82 384.62,-1177.5 384.62,-1177.5"
         style="fill:#f4904d;fill-opacity:1;fill-rule:nonzero;stroke:none"
         id="path202" /><path
         d="m 6075.17,2134.3 c 0,0 19.98,-322.4 82.34,-327 8.3,-0.6 316.3,-0.6 316.3,-0.6 L 6867,1809 c 0,0 -2.58,94.7 -117.51,114.7 -114.92,20.1 -307.29,100.8 -376.91,252.7 -73.24,159.8 -297.41,-42.1 -297.41,-42.1"
         style="fill:#1c4b8e;fill-opacity:1;fill-rule:nonzero;stroke:none"
         id="path204" /><path
         d="m 6710.87,6055.4 c 0,0 14.56,-991.1 -156.91,-2208 C 6382.48,2630.5 6440.61,2114 6440.61,2114 c 0,0 -117.82,-38.2 -165.37,-42.1 -121.13,-9.9 -245.34,28.4 -245.34,28.4 0,0 -245.44,1217.3 -175.07,1826.4 70.38,609.1 -336.09,2090.1 -336.09,2090.1 l 1192.13,38.6"
         style="fill:#ffa561;fill-opacity:1;fill-rule:nonzero;stroke:none"
         id="path206" /><path
         d="m 5915.82,8374.7 218.87,-143.5 199.36,56.3 c 36.44,52 46.09,152.3 46.62,239.1 0.54,86.1 -7.82,159.1 -7.82,159.1 l -295.29,130.4 -110.18,48.5 c 0.32,-1.7 8.57,-90.4 9.75,-103.4 20.58,-230.1 -61.31,-386.5 -61.31,-386.5"
         style="fill:#ffb27d;fill-opacity:1;fill-rule:nonzero;stroke:none"
         id="path208" /><path
         d="m 6715.9,5779.9 c -272.43,-263.1 -1303.43,-218.8 -1366.97,71 -63.43,289.8 69.29,2466.9 534.64,2603.7 96.57,28.4 612.83,-138.5 612.83,-138.5 0,0 81.01,-211.9 134.14,-481.7 10.3,-52.5 40.41,-608.9 62.93,-1129.4 10.5,-243.4 19.4,-479.1 23.94,-651.6 4.14,-161.6 4.34,-267.8 -1.51,-273.5"
         style="fill:#afcdfb;fill-opacity:1;fill-rule:nonzero;stroke:none"
         id="path210" /><path
         d="m 5999.21,8757.1 c 59.91,-101.3 270.1,-189.9 381.46,-230.5 0.54,86.1 -7.82,159.1 -7.82,159.1 l -295.29,130.4 c -65.27,0.8 -105.04,-13.7 -78.35,-59"
         style="fill:#fca56b;fill-opacity:1;fill-rule:nonzero;stroke:none"
         id="path212" /><path
         d="m 6484.23,8703.7 c 0,0 -475.78,-148.4 -563.65,149.3 -87.87,297.7 -208.45,479.1 91.61,586.4 300.06,107.4 392.88,11.3 446.38,-81 53.5,-92.2 147.16,-608.4 25.66,-654.7"
         style="fill:#ffb27d;fill-opacity:1;fill-rule:nonzero;stroke:none"
         id="path214" /><path
         d="m 6439.88,9387.1 c 0,0 -30.34,-346.4 -101.98,-331.4 -71.65,15.1 -150.52,47.2 -140.03,-57.2 10.49,-104.4 -69.67,-283.5 -172.98,-283 -221.57,0.9 -462.32,569.4 -401.66,677.3 175.02,311 1069.62,373.8 816.65,-5.7"
         style="fill:#163560;fill-opacity:1;fill-rule:nonzero;stroke:none"
         id="path216" /><path
         d="m 6369.89,8447.1 c -6.14,2.6 -354.19,158.7 -394.89,145.3 -40.71,-13.5 -91.45,-137.8 -91.45,-137.8 L 6496.42,8316 c 0,0 -48.24,98.1 -126.53,131.1"
         style="fill:#95b3ef;fill-opacity:1;fill-rule:nonzero;stroke:none"
         id="path218" /><path
         d="M 8536.75,6761 6585.69,4924 c -38.24,-36 -86.46,-47.4 -107.16,-25.5 l -65.86,70 c -20.7,22 -6.34,69.4 31.9,105.4 l 1951.06,1837 c 38.24,36 86.46,47.4 107.16,25.5 l 65.86,-70 c 20.7,-22 6.34,-69.4 -31.9,-105.4"
         style="fill:#1f4d84;fill-opacity:1;fill-rule:nonzero;stroke:none"
         id="path220" /><path
         d="M 7441.86,5730.1 6585.69,4924 c -38.24,-36 -86.46,-47.4 -107.16,-25.5 l -65.86,70 c -20.7,22 -6.34,69.4 31.9,105.4 l 856.16,806.1 141.13,-149.9"
         style="fill:#739af0;fill-opacity:1;fill-rule:nonzero;stroke:none"
         id="path222" /><path
         d="m 8525.4,8865.9 c 336.76,358 816.62,500.7 1267.22,422.6 262.58,-45.4 515.08,-165.7 723.68,-361.9 566.6,-533 593.7,-1424.4 60.7,-1990.9 -196.3,-208.6 -441,-344 -700.13,-405.4 -445.13,-105.4 -932.82,7.7 -1290.81,344.6 -566.56,533 -593.79,1424.3 -60.66,1991 M 8088.31,7454.5 c 74.92,-246.8 213.61,-478 415.01,-667.5 615.12,-578.7 1582.98,-549.1 2161.68,65.9 571,607.1 549.8,1557.4 -42,2138.4 -7.9,7.8 -15.9,15.6 -24,23.2 -615.06,578.6 -1582.81,549.3 -2161.49,-65.8 -389.29,-413.8 -503.44,-987.1 -349.2,-1494.2"
         style="fill:#1f4d84;fill-opacity:1;fill-rule:nonzero;stroke:none"
         id="path224" /><path
         d="m 9550.77,6492.3 c -20.25,0 -40.49,0.4 -60.73,1.3 -263.6,11.3 -524.96,96.3 -750.82,256 -53.18,37.6 -104.37,79.4 -153.16,125.3 -566.56,533 -593.79,1424.3 -60.66,1991 19.17,20.4 38.81,40.1 58.89,59.1 269.97,255.3 618.11,384.2 967,384.2 80.72,0 161.47,-6.9 241.31,-20.7 247.8,-42.9 486.7,-152.4 688,-329.4 9.3,-8.2 18.6,-16.6 27.7,-25.1 H 9316.23 c -49.86,0 -90.28,-40.4 -90.28,-90.2 v -38.1 c 0,-49.8 40.42,-90.2 90.28,-90.2 h 1384.27 c 64.7,-91.2 117.4,-188.5 158,-289.6 H 9295.35 c -38.33,0 -69.4,-31.1 -69.4,-69.4 v -10.4 c 0,-38.3 31.07,-69.4 69.4,-69.4 h 1613.45 c 14.8,-53.9 26.5,-108.5 34.8,-163.6 h -168.7 c -41.2,0 -74.6,-33.4 -74.6,-74.6 0,-41.2 33.4,-74.6 74.6,-74.6 h 183.3 c 15.7,-349.4 -98.1,-704.3 -343.5,-986.6 H 9316.23 c -49.86,0 -90.28,-40.4 -90.28,-90.3 v -38 c 0,-49.8 40.42,-90.2 90.28,-90.2 h 1059.67 c -152.4,-110.4 -322.4,-186.6 -499.03,-228.5 -107.02,-25.3 -216.56,-38 -326.1,-38 m -250.25,1620.8 c -41.18,0 -74.57,-33.4 -74.57,-74.6 0,-41.2 33.39,-74.6 74.57,-74.6 h 1182.08 c 41.1,0 74.5,33.4 74.5,74.6 0,41.2 -33.4,74.6 -74.5,74.6 H 9300.52"
         style="fill:#b1c9fc;fill-opacity:1;fill-rule:nonzero;stroke:none"
         id="path226" /><path
         d="M 10700.5,8715.5 H 9316.23 c -49.86,0 -90.28,40.4 -90.28,90.2 v 38.1 c 0,49.8 40.42,90.2 90.28,90.2 h 1192.07 c 2.7,-2.4 5.4,-4.9 8,-7.4 10.5,-9.9 20.9,-19.9 31,-30 0.3,-0.4 0.6,-0.7 0.9,-1 0.3,-0.2 0.4,-0.4 0.7,-0.6 56.2,-56.4 106.8,-116.5 151.6,-179.5"
         style="fill:#d6b3a0;fill-opacity:1;fill-rule:nonzero;stroke:none"
         id="path228" /><path
         d="M 10482.6,7963.9 H 9300.52 c -41.18,0 -74.57,33.4 -74.57,74.6 0,41.2 33.39,74.6 74.57,74.6 h 1182.08 c 41.1,0 74.5,-33.4 74.5,-74.6 0,-41.2 -33.4,-74.6 -74.5,-74.6"
         style="fill:#93b5f5;fill-opacity:1;fill-rule:nonzero;stroke:none"
         id="path230" /><path
         d="M 10908.8,8276.7 H 9295.35 c -38.33,0 -69.4,31.1 -69.4,69.4 v 10.4 c 0,38.3 31.07,69.4 69.4,69.4 h 1563.15 c 19.6,-48.9 36.3,-98.7 50.3,-149.2"
         style="fill:#93b5f5;fill-opacity:1;fill-rule:nonzero;stroke:none"
         id="path232" /><path
         d="m 10958.2,7963.9 h -183.3 c -41.2,0 -74.6,33.4 -74.6,74.6 0,41.2 33.4,74.6 74.6,74.6 h 168.7 c 5.5,-36.2 9.6,-72.6 12.3,-109 0.9,-13.4 1.7,-26.8 2.3,-40.2"
         style="fill:#93b5f5;fill-opacity:1;fill-rule:nonzero;stroke:none"
         id="path234" /><path
         d="M 10375.9,6758.8 H 9316.23 c -49.86,0 -90.28,40.4 -90.28,90.2 v 38 c 0,49.9 40.42,90.3 90.28,90.3 h 1298.47 c -12.3,-14 -24.8,-28 -37.7,-41.6 -62.5,-66.4 -129.9,-125.4 -201.1,-176.9"
         style="fill:#d6b3a0;fill-opacity:1;fill-rule:nonzero;stroke:none"
         id="path236" /><path
         d="m 9550.92,6492.2 c -20.3,0 -40.59,0.5 -60.88,1.4 20.24,-0.9 40.48,-1.3 60.73,-1.3 109.54,0 219.08,12.7 326.1,38 176.63,41.9 346.63,118.1 499.03,228.5 71.2,51.5 138.6,110.5 201.1,176.9 12.9,13.6 25.4,27.6 37.7,41.6 245.4,282.3 359.2,637.2 343.5,986.6 -0.6,13.4 -1.4,26.8 -2.3,40.2 27.8,-379.7 -97.5,-769.3 -378.9,-1068.4 -196.2,-208.6 -441,-344 -700.17,-405.5 -106.95,-25.3 -216.43,-38 -325.91,-38 m -811.7,257.4 c -53.18,37.6 -104.41,79.4 -153.21,125.3 -566.54,533 -593.72,1424.4 -60.64,1991 19.18,20.4 38.84,40.1 58.92,59.1 -20.08,-19 -39.72,-38.7 -58.89,-59.1 -533.13,-566.7 -505.9,-1458 60.66,-1991 48.79,-45.9 99.98,-87.7 153.16,-125.3 M 10548.9,8895 c -0.3,0.2 -0.4,0.4 -0.7,0.6 0.2,-0.2 0.5,-0.4 0.7,-0.6 m -1.6,1.6 c -10.1,10.1 -20.5,20.1 -31,30 -2.6,2.5 -5.3,5 -8,7.4 -9.1,8.5 -18.4,16.9 -27.7,25.1 12,-10.6 23.9,-21.4 35.7,-32.5 10.5,-9.9 20.9,-19.9 31,-30"
         style="fill:#698ebf;fill-opacity:1;fill-rule:nonzero;stroke:none"
         id="path238" /><path
         d="m 6717.41,6053.4 c -1075.05,766 -985.65,1788.3 -985.65,1788.3 392.93,-221.7 782.82,-711.7 961.71,-1136.7 10.5,-243.4 19.4,-479.1 23.94,-651.6"
         style="fill:#95b3ef;fill-opacity:1;fill-rule:nonzero;stroke:none"
         id="path240" /><path
         d="m 7778.45,6402.2 c 75.8,17.5 126.72,74.9 137.3,84.9 0,0 32.33,-2.2 -5.3,-71.2 -3.15,-5.8 -10.14,-20.6 -15.41,-31.1 -2.16,-4.3 0.84,-9.2 5.62,-9.6 43.75,-3.3 87.72,14 172.01,-3.6 11.63,-2.4 15.01,-30.3 14.56,-42.1 -0.76,-20.1 0.69,-42.7 -22.65,-73.5 -13.57,-17.9 -51.47,-37.2 -135.84,-71.1 -32.15,-12.9 -124.05,-3.2 -210.2,26.4 l -68.82,31.9 21.34,127.9 17.29,-3.6 c 27.46,-5.8 61.47,27.7 90.1,34.7"
         style="fill:#ffb27d;fill-opacity:1;fill-rule:nonzero;stroke:none"
         id="path242" /><path
         d="m 6065.4,8316 c 0,0 -965.96,-183.9 284.18,-1582.7 199.95,-223.7 1280.17,-515 1280.17,-515 0,0 109.56,93.2 54.32,168.7 0,0 -743.76,540.1 -907.4,625.9 -73.62,38.7 -285.72,862.1 -405.73,1060.4 C 6250.93,8271.6 6065.4,8316 6065.4,8316"
         style="fill:#afcdfb;fill-opacity:1;fill-rule:nonzero;stroke:none"
         id="path244" /><path
         d="m 7927.11,7794.3 c 0,0 31.61,60.4 37.77,92.2 6.16,31.8 45.95,124.7 62.34,141.1 6.57,6.6 28.19,-1.9 30.74,-30.1 1.12,-12.2 -4.89,-34.5 -15.51,-61.1 -17.28,-43.2 -14.43,-101.8 -20.44,-121.4 -14.96,-48.6 -94.9,-20.7 -94.9,-20.7"
         style="fill:#ffb27d;fill-opacity:1;fill-rule:nonzero;stroke:none"
         id="path246" /><g
         id="g248"
         transform="scale(1.27868)"><path
           d="m 16300,7537.45 -427.7,-99.47 -211.5,-384.85 -161.5,876.97 800.7,-392.65"
           style="fill:#233862;fill-opacity:1;fill-rule:nonzero;stroke:none"
           id="path250" /></g><g
         id="g252"
         transform="scale(1.26473)"><path
           d="m 16300,7240.91 -63,-47.75 -276.2,364.5 63,47.76 276.2,-364.51"
           style="fill:#233862;fill-opacity:1;fill-rule:nonzero;stroke:none"
           id="path254" /></g><g
         id="g256"
         transform="scale(1.18193)"><path
           d="m 16108.7,3769.36 c 0,0 191.3,224.63 10.7,366.26 0,0 -131.9,79.28 -239.1,72.51 0,0 152.8,-254.5 103.7,-280.05 -49.2,-25.47 -149.9,295.87 -149.9,295.87 0,0 -299.5,28.09 -395.7,-18.53 0,0 256.7,-208.72 202.8,-221.33 -53.9,-12.61 -331.1,192.14 -331.1,192.14 0,0 -278.6,-48.31 -263.2,-218.37 15.4,-169.98 111.6,-222.18 153.8,-217.53 42.2,4.66 288.8,99.76 294.3,65.15 5.5,-34.52 -142.8,-148.06 -246.8,-153.65 0,0 197.2,-216.08 327.6,-153.14 130.3,62.95 141.2,162.11 222.5,199.6 81.3,37.39 150.7,37.56 117.2,-0.51 -33.4,-37.99 -180.6,-75.3 -227,-157.88 -46.2,-82.49 -87.8,-138.16 47.3,-117.35 135,20.73 354.3,120.31 363.6,233.51 9.3,113.3 9.3,113.3 9.3,113.3"
           style="fill:#82b378;fill-opacity:1;fill-rule:nonzero;stroke:none"
           id="path258" /></g><g
         id="g260"
         transform="scale(1.18033)"><path
           d="m 15204.4,3959.06 c 0,0 758,31.69 926.1,-184.61 0,0 37.3,-110.82 151.5,-211.38 l 18,-48.38 c 0,0 -131.8,138.1 -178.8,146.32 0,0 72.6,268.82 -916.8,298.05"
           style="fill:#82b378;fill-opacity:1;fill-rule:nonzero;stroke:none"
           id="path262" /></g><g
         id="g264"
         transform="scale(1.19171)"><path
           d="m 16126.5,3529.04 c 0,0 161.7,-118.65 173.5,-331.62 l -29.3,-2.69 c 0,0 -52.1,220.02 -145.4,305.86 -93.3,85.77 1.2,28.45 1.2,28.45"
           style="fill:#82b378;fill-opacity:1;fill-rule:nonzero;stroke:none"
           id="path266" /></g><g
         id="g268"
         transform="scale(1.32541)"><path
           d="m 15270,3889.59 c 0,0 -272.9,151.65 -146.5,359.05 0,0 101.4,127.44 210.2,160.48 0,0 -57.2,-308.88 1,-315.97 58.1,-7.02 38.9,348.79 38.9,348.79 0,0 286.4,138.9 399,128.34 0,0 -177,-301.94 -118.9,-294.55 58.1,7.47 256.8,313.19 256.8,313.19 0,0 294,55.38 341.7,-118.76 47.8,-174.21 -28.2,-261.58 -71.7,-272.59 -43.5,-11.09 -323.2,-8.3 -315.8,-44.6 7.4,-36.28 196.4,-93.77 301.6,-60.8 0,0 -115.3,-287.24 -267.8,-273.2 -152.6,14.03 -200.1,108.34 -294.6,115.28 -94.4,6.94 -163.3,-18.71 -116,-43.99 47.3,-25.19 207,-7.61 283.4,-72.2 76.5,-64.58 138.4,-104.34 -3.1,-133.84 -141.6,-29.5 -395.8,-12.15 -447.1,96.57 -51.1,108.8 -51.1,108.8 -51.1,108.8"
           style="fill:#a8d29f;fill-opacity:1;fill-rule:nonzero;stroke:none"
           id="path270" /></g><g
         id="g272"
         transform="scale(1.31062)"><path
           d="m 16300,4465.06 c 0,0 -770.5,-252.17 -857.7,-531.58 0,0 4.1,-124.82 -72.6,-268.27 l 0.2,-55.09 c 0,0 80.2,187.55 124.1,213.34 0,0 -173.3,241.87 806,641.6"
           style="fill:#82b378;fill-opacity:1;fill-rule:nonzero;stroke:none"
           id="path274" /></g><g
         id="g276"
         transform="scale(1.24176)"><path
           d="m 16222,3868.46 c 0,0 -124.9,-191.02 -52.6,-422.87 l 32.2,8.78 c 0,0 -32.1,255.44 33.2,384.21 65.2,128.77 -12.8,29.88 -12.8,29.88"
           style="fill:#82b378;fill-opacity:1;fill-rule:nonzero;stroke:none"
           id="path278" /></g><g
         id="g280"
         transform="scale(1.23551)"><path
           d="m 15915.5,4396.81 c 0,0 384.5,216.92 203.8,509.02 0,0 -144.3,179.36 -298.5,225.01 0,0 83.5,-436.18 1.4,-446.7 -82.1,-10.6 -58.1,492.75 -58.1,492.75 0,0 -406.3,193.85 -565.4,177.99 0,0 253,-425.41 170.8,-415.46 -82.3,10.04 -366.1,440.47 -366.1,440.47 0,0 -416.1,75.75 -482.1,-170.95 -66,-246.7 42.3,-369.64 103.9,-384.86 61.7,-15.21 457.1,-8.82 447,-60.21 -10.2,-51.4 -276.9,-134.36 -426,-88.63 0,0 165.6,-405.18 381.2,-383.97 215.6,21.28 282,154.99 415.5,165.68 133.4,10.68 231.1,-24.93 164.5,-61.11 -66.6,-36.18 -292.7,-12.71 -400.2,-104.74 -107.6,-92.02 -194.7,-148.76 5.7,-189.23 200.4,-40.47 559.8,-13.6 631.3,140.67 71.3,154.27 71.3,154.27 71.3,154.27"
           style="fill:#a8d29f;fill-opacity:1;fill-rule:nonzero;stroke:none"
           id="path282" /></g><g
         id="g284"
         transform="scale(1.21917)"><path
           d="m 14908.7,5201.26 c 0,0 1094,-350.4 1220.2,-745.51 0,0 -4.7,-176.92 105.2,-379.6 l 0.3,-78.01 c 0,0 -115.3,265.02 -177.8,301.27 0,0 243.4,344.26 -1147.9,901.85"
           style="fill:#82b378;fill-opacity:1;fill-rule:nonzero;stroke:none"
           id="path286" /></g><g
         id="g288"
         transform="scale(1.22691)"><path
           d="m 16131.7,4050.43 c 0,0 168.3,-253.73 73.8,-563.62 l -43.1,11.41 c 0,0 40.8,341.11 -47.4,512.35 -88.2,171.24 16.7,39.86 16.7,39.86"
           style="fill:#82b378;fill-opacity:1;fill-rule:nonzero;stroke:none"
           id="path290" /></g><g
         id="g292"
         transform="scale(1.46754)"><path
           d="M 15995.2,1214.69 H 12672 c -463.3,530 -341,1245.96 274,1849.83 77.4,75.9 225.7,129.74 385.6,167.76 294.9,69.98 629.2,86.13 631.8,87.49 0.9,0.41 176.7,142.83 282.3,270.86 328.5,397.61 607.9,363.47 607.9,363.47 334.7,65.14 620.3,84.22 832,-33.59 v -0.14 c 196.1,-109.3 329,-336.28 378.6,-753.44 9.4,-78.84 15.9,-164.56 19.2,-257.5 12.2,-338.53 78.9,-639.71 118.5,-894.7 h 0.1 c 57.4,-369.39 98,-650.27 -206.8,-800.04"
           style="fill:#ffa561;fill-opacity:1;fill-rule:nonzero;stroke:none"
           id="path294" /></g><g
         id="g296"
         transform="scale(1.43323)"><path
           d="m 15891.3,3578.92 c -208,-113.31 -231,-486.53 -556.5,-582.95 -325.6,-96.43 -878.2,-87.64 -1191.7,-427.64 -302.4,-328 -635.9,506.55 -492.3,741.33 301.9,71.66 644.2,88.2 646.9,89.59 0.9,0.42 180.9,146.25 289.1,277.35 336.3,407.12 622.4,372.17 622.4,372.17 342.8,66.7 635.2,86.24 852,-34.4 v -0.14 c 238.8,-246.72 38.1,-322 -169.9,-435.31"
           style="fill:#f4904d;fill-opacity:1;fill-rule:nonzero;stroke:none"
           id="path298" /></g><g
         id="g300"
         transform="scale(1.22593)"><path
           d="m 15946.5,2297.53 c 0,0 70,-185.74 55.4,-254.83 -14.5,-69.01 9.7,-202.62 -18.3,-262.58 -28.1,-59.87 -78.2,-146.91 -29.7,-168.77 18.3,-8.32 231.5,158.09 243.6,207.03 12.1,48.94 21.2,193.32 61.8,271.71 40.7,78.47 6.2,141.53 -53,170.16 -59.2,28.63 -142.1,186.15 -142.1,186.15 l -117.7,-148.87"
           style="fill:#f9ddbf;fill-opacity:1;fill-rule:nonzero;stroke:none"
           id="path302" /></g><g
         id="g304"
         transform="scale(1.29581)"><path
           d="m 16164.3,3839.68 c 0,0 -1101.1,67.99 -1243,-78.02 -149.5,-153.88 94,-1667.52 94,-1667.52 0,0 298.7,-8.57 322.1,70.53 0,0 -56,732.82 -9.4,859.62 46.6,126.71 17.1,302.13 17.1,302.13 0,0 584.2,-87.21 769.5,-42.76 185.4,44.37 49.7,556.02 49.7,556.02"
           style="fill:#233862;fill-opacity:1;fill-rule:nonzero;stroke:none"
           id="path306" /></g><g
         id="g308"
         transform="scale(1.31879)"><path
           d="m 16144.8,4566.99 c -0.1,-0.92 -159.5,-372.16 -237.3,-411.74 -77.8,-39.59 -359.3,-363.37 -419.8,-357.76 -60.3,5.61 62.4,-66.12 62.4,-66.12 0,0 500.6,244.17 529.2,258.42 28.6,14.18 179.4,262.29 200,388.23 20.7,125.95 -134.5,188.97 -134.5,188.97"
           style="fill:#ffb27d;fill-opacity:1;fill-rule:nonzero;stroke:none"
           id="path310" /></g><g
         id="g312"
         transform="scale(1.19831)"><path
           d="m 16094,2036.78 c 0,0 -67.8,-191.35 -124.7,-235.75 -56.9,-44.39 -126.2,-164.81 -187.7,-193.1 -61.4,-28.29 -158.1,-63.26 -134.7,-112.33 8.9,-18.6 285.4,-29.29 327.1,1.01 41.9,30.29 144.2,137.1 227.8,171.57 83.5,34.55 98.2,106.57 70.7,167.99 -27.3,61.5 11.9,239.25 11.9,239.25 l -190.4,-38.64"
           style="fill:#f9ddbf;fill-opacity:1;fill-rule:nonzero;stroke:none"
           id="path314" /></g><g
         id="g316"
         transform="scale(1.42085)"><path
           d="m 15287.6,4391.94 c -21.5,24.77 522.3,-36.32 594.7,-314.11 0,0 417.7,329.24 34.5,606.68 -132.6,96.07 -146,198.61 -165.2,292.43 -19.2,93.89 -151.7,363.51 -381.3,229.58 0,0 -104.9,-0.49 -171.3,-58.06 -150.9,-130.84 -315.6,-962.45 88.6,-756.52"
           style="fill:#163560;fill-opacity:1;fill-rule:nonzero;stroke:none"
           id="path318" /></g><g
         id="g320"
         transform="scale(1.35317)"><path
           d="m 15941.1,3625.78 c 0,0 -1146.5,-116.99 -1247.2,-234.04 -100.7,-117.06 -496.2,-1638.9 -496.2,-1638.9 0,0 117,-65.18 223.4,-4.13 0,0 303.1,516.27 437.3,678.4 134.1,162.07 184.1,662.45 206.3,667.62 22.2,5.1 740.6,-100.06 988,89.93 247.3,190 -111.6,441.12 -111.6,441.12"
           style="fill:#2a4e96;fill-opacity:1;fill-rule:nonzero;stroke:none"
           id="path322" /></g><g
         id="g324"
         transform="scale(1.39531)"><path
           d="m 16078.5,4525.44 c 0,0 -265.3,118.39 -601.6,64.07 -68.7,-11.11 -130.6,-33.69 -179.7,-114.67 -69.4,-114.39 -101.9,-175.8 -101.9,-175.8 0,0 6.7,-52.97 101.6,-95.18 -25.8,-94.82 23.7,-260.37 -21.8,-324.66 -45.6,-64.29 -328.1,-223.68 -342,-312.26 -25.7,-162.83 482.9,-457.82 634.6,-426.28 436.3,90.8 732.3,1260.14 510.8,1384.78"
           style="fill:#f9ddbf;fill-opacity:1;fill-rule:nonzero;stroke:none"
           id="path326" /></g><g
         id="g328"
         transform="scale(1.36898)"><path
           d="m 16234.7,4954.36 c 0,0 53.2,104.82 60.3,190.87 5,61.44 -46.9,282.41 -268.9,228.94 0,0 -64.7,-12.64 -122.2,-59.98 -45.8,-37.62 -109.5,-115.49 -12.2,-303.43 l 26.7,-64.07 316.3,7.67"
           style="fill:#163560;fill-opacity:1;fill-rule:nonzero;stroke:none"
           id="path330" /></g><g
         id="g332"
         transform="scale(1.36383)"><path
           d="m 15990.6,4617.96 c -22.5,-23.76 -13.6,-102.8 91.9,-96.86 69.2,3.96 217.5,89.53 203.6,148.7 -6.6,28.08 -59.9,100.59 -72.4,267.4 l -12.6,-3.52 -211.3,-59.46 c 0,0 10.2,-67.16 15.4,-130.81 4.4,-53.38 -5.2,-115.63 -14.6,-125.45"
           style="fill:#ffb27d;fill-opacity:1;fill-rule:nonzero;stroke:none"
           id="path334" /></g><g
         id="g336"
         transform="scale(1.35555)"><path
           d="m 16087.5,4903.98 c 0,0 10.2,-67.57 15.4,-131.61 120.6,12.99 175.8,128.22 197.1,191.44 l -212.5,-59.83"
           style="fill:#f4a269;fill-opacity:1;fill-rule:nonzero;stroke:none"
           id="path338" /></g><g
         id="g340"
         transform="scale(1.36063)"><path
           d="m 16022.9,4787.77 c 0,0 277.1,69.75 230.9,241.66 -46,171.9 -41.3,296.7 -220.2,259.44 -178.9,-37.34 -195.6,-112.08 -194.1,-173.23 1.5,-61.15 110.1,-341.61 183.4,-327.87"
           style="fill:#ffb27d;fill-opacity:1;fill-rule:nonzero;stroke:none"
           id="path342" /></g><g
         id="g344"
         transform="scale(1.36116)"><path
           d="m 15900.6,5257.14 c 0,0 93,-177.2 268.6,-196.23 102.7,-11.17 130.8,-78.76 130.8,-78.76 0,0 -30.9,193.36 -82.5,311.72 0,0 -285.8,74.57 -316.9,-36.73"
           style="fill:#163560;fill-opacity:1;fill-rule:nonzero;stroke:none"
           id="path346" /></g><g
         id="g348"
         transform="scale(1.33046)"><path
           d="m 16300,5354.47 c 0,0 -62.1,-63.37 -81.2,-108.01 -28.3,-66.15 27,-205.42 49.9,-235.49 0,0 -132,223.76 -88,320.64 46.8,102.75 119.3,22.86 119.3,22.86"
           style="fill:#163560;fill-opacity:1;fill-rule:nonzero;stroke:none"
           id="path350" /></g><g
         id="g352"
         transform="scale(1.25995)"><path
           d="m 16300,3930.39 c 0,0 -59.6,-63.18 -66.8,-66.59 -39.4,-18.41 -89.2,-7.7 -113.3,-13.73 -24,-6.03 -19.9,8.89 -2.1,21.04 17.7,12.22 61.3,7.45 43.5,11.9 -17.8,4.37 -114.2,22.3 -150.4,12.62 -57.5,-15.4 -102.8,2.62 -106.4,8.49 -3.6,5.88 131.1,71.75 169.6,69.53 38.5,-2.14 149.2,3.17 149.2,3.17 l 76.7,-46.43"
           style="fill:#ffb27d;fill-opacity:1;fill-rule:nonzero;stroke:none"
           id="path354" /></g><g
         id="g356"
         transform="scale(1.41288)"><path
           d="m 15968.8,4365.4 c 0,0 331.2,-747.55 239.2,-857.33 -91.3,-108.99 -728.6,23.36 -728.6,23.36 l 19.7,69.43 c 0,0 468.6,28.67 502,38.15 48,13.59 -237.5,537.91 -237.5,537.91 l 205.2,188.48"
           style="fill:#ffb27d;fill-opacity:1;fill-rule:nonzero;stroke:none"
           id="path358" /></g><g
         id="g360"
         transform="scale(1.39716)"><path
           d="m 16023.7,4531.84 c 8,-0.15 108,-33 180,-175.22 70.6,-139.71 96.3,-207.56 96.3,-207.56 0,0 -313.1,-242.71 -437.6,-153.45 -124.5,89.32 46.4,539.23 161.3,536.23"
           style="fill:#f9ddbf;fill-opacity:1;fill-rule:nonzero;stroke:none"
           id="path362" /></g><g
         id="g364"
         transform="scale(1.3482)"><path
           d="m 16300,3777.18 c 0,0 -55.8,36.19 -78.3,56 -22.6,19.73 -153.3,35.82 -153.2,22.62 0.1,-13.2 76.1,-31.15 84.4,-44.35 8.3,-13.21 54.8,-67.58 94.4,-67.5 39.7,0.15 52.7,33.23 52.7,33.23"
           style="fill:#ffb27d;fill-opacity:1;fill-rule:nonzero;stroke:none"
           id="path366" /></g><g
         id="g368"
         transform="scale(1.33857)"><path
           d="m 16263.8,3685.8 -150.7,21.44 c -22.6,3.14 -45.4,21.96 -51,41.98 l -83.3,294.35 c -5.6,20.02 8,33.62 30.5,30.4 l 150.8,-21.36 c 22.5,-3.21 45.4,-22.04 51,-42.06 l 83.3,-294.35 c 5.6,-20.02 -8.1,-33.62 -30.6,-30.4"
           style="fill:#1f4a91;fill-opacity:1;fill-rule:nonzero;stroke:none"
           id="path370" /></g><g
         id="g372"
         transform="scale(1.33599)"><path
           d="m 16263.8,3697.32 -151.1,21.49 c -22.6,3.21 -45.4,22.08 -51.1,42.14 l -83.4,294.91 c -5.7,20.06 8,33.68 30.6,30.46 l 151,-21.48 c 22.6,-3.22 45.5,-22.01 51.1,-42.07 l 83.5,-294.91 c 5.6,-20.06 -8.1,-33.68 -30.6,-30.54"
           style="fill:#233862;fill-opacity:1;fill-rule:nonzero;stroke:none"
           id="path374" /></g><g
         id="g376"
         transform="scale(1.31471)"><path
           d="m 16263.1,4114.23 c -2.3,8.52 3.4,14.22 12.9,12.93 9.6,-1.37 19.2,-9.36 21.6,-17.8 2.4,-8.44 -3.4,-14.22 -12.9,-12.85 -9.5,1.37 -19.2,9.28 -21.6,17.72"
           style="fill:#1f4a91;fill-opacity:1;fill-rule:nonzero;stroke:none"
           id="path378" /></g><g
         id="g380"
         transform="scale(1.34683)"><path
           d="m 16238.6,3704.63 c 0,0 -101.4,-1.41 -126.7,4.6 -25.5,6.02 -90.4,86.65 -73.1,106.77 10.9,12.77 71.5,-10.02 100.3,-9.95 28.9,0.08 103.9,41.81 155.1,-43.58 5.8,-9.65 -55.6,-57.84 -55.6,-57.84"
           style="fill:#ffb27d;fill-opacity:1;fill-rule:nonzero;stroke:none"
           id="path382" /></g><g
         id="g384"
         transform="scale(1.3777)"><path
           d="m 16300,3433.12 c 0,0 -106.6,-99.95 -553,-114.33 -446.4,-14.37 -1028.4,-507.65 -1033.8,-646.94 -5.5,-139.22 898.8,-350.88 912.8,-330.92 14,19.96 573.4,500.47 573.4,500.47 l 100.6,591.72"
           style="fill:#ffa561;fill-opacity:1;fill-rule:nonzero;stroke:none"
           id="path386" /></g><g
         id="g388"
         transform="scale(1.45871)"><path
           d="m 16300,2026.93 c -469,585.51 -1432.6,-212.66 -1681.9,-190.1 -229.2,20.7 447,820.93 1285.7,940.01 339,48.12 257.8,398.43 257.7,409.26 9.4,-79.32 15.9,-165.56 19.3,-259.07 12.2,-340.57 79.3,-643.58 119.2,-900.1"
           style="fill:#f4904d;fill-opacity:1;fill-rule:nonzero;stroke:none"
           id="path390" /></g><g
         id="g392"
         transform="scale(1.57012)"><path
           d="m 16281.9,1102.4 -14856.74,5.09 c -9.96,0 -18.1,8.16 -18.1,18.16 v 9.23 c 0,10 8.15,18.15 18.11,18.09 l 14856.73,-5.1 c 9.9,0 18.1,-8.15 18.1,-18.08 v -9.3 c 0,-9.94 -8.2,-18.09 -18.1,-18.09"
           style="fill:#2e3552;fill-opacity:1;fill-rule:nonzero;stroke:none"
           id="path394" /></g><g
         id="g396"
         transform="scale(1.05896)"><path
           d="m 15041.8,13896.5 1258.2,-260.3 -806.6,626.8 -54.3,-181.4 -312.2,-36.7 -85.1,-148.4"
           style="fill:#95b3ef;fill-opacity:1;fill-rule:nonzero;stroke:none"
           id="path398" /></g><g
         id="g400"
         transform="scale(1.05896)"><path
           d="m 16300,13636.2 -1022.4,610.6 -1032.3,116.7 2054.7,-727.3"
           style="fill:#f9ddbf;fill-opacity:1;fill-rule:nonzero;stroke:none"
           id="path402" /></g><g
         id="g404"
         transform="scale(1.05896)"><path
           d="m 15493.4,14263 806.6,-626.8 -596.2,938.1 -210.4,-311.3"
           style="fill:#f9ddbf;fill-opacity:1;fill-rule:nonzero;stroke:none"
           id="path406" /></g><path
         d="m 7556.06,10966.1 -1332.38,-275.7 854.18,663.8 57.54,-192.1 330.62,-38.8 90.04,-157.2"
         style="fill:#95b3ef;fill-opacity:1;fill-rule:nonzero;stroke:none"
         id="path408" /><path
         d="m 6223.68,10690.4 1082.73,646.6 1093.02,123.6 z"
         style="fill:#f9ddbf;fill-opacity:1;fill-rule:nonzero;stroke:none"
         id="path410" /><path
         d="m 7077.86,11354.2 -854.18,-663.8 631.33,993.5 z"
         style="fill:#f9ddbf;fill-opacity:1;fill-rule:nonzero;stroke:none"
         id="path412" /><path
         d="m 9739.13,10581.1 38.97,46.3 c 35.28,-30.5 70.56,-47.9 116.38,-47.9 40.02,0 65.3,18.4 65.3,47.4 0,26.4 -14.75,40.6 -83.2,56.9 -78.47,18.4 -122.71,41.6 -122.71,110.6 0,63.2 52.66,106.9 125.86,106.9 53.72,0 96.37,-16.3 133.77,-46.4 l -34.76,-48.9 c -33.18,24.7 -66.35,37.9 -100.06,37.9 -37.92,0 -60.03,-19.5 -60.03,-44.8 0,-28.4 16.85,-41.1 87.41,-57.9 77.94,-19 118.54,-46.9 118.54,-109 0,-69 -54.28,-110.1 -131.7,-110.1 -56.35,0 -109.54,19.5 -153.77,59"
         style="fill:#739af0;fill-opacity:1;fill-rule:nonzero;stroke:none"
         id="path414" /><path
         d="m 10284.2,10685.9 c -4.2,41.1 -28.5,73.2 -70.6,73.2 -39,0 -66.3,-30 -72.1,-73.2 z m -205.9,-19.5 c 0,79.5 56.3,144.8 135.8,144.8 88.5,0 133.3,-69.5 133.3,-149.5 0,-4.2 -0.5,-14.8 -1.1,-17.9 H 10142 c 6.8,-45.3 39,-70.6 80,-70.6 31.1,0 53.2,11.6 75.4,33.2 l 37.3,-33.2 c -26.3,-31.6 -62.6,-52.1 -113.7,-52.1 -80.6,0 -142.7,58.4 -142.7,145.3"
         style="fill:#739af0;fill-opacity:1;fill-rule:nonzero;stroke:none"
         id="path416" /><path
         d="m 10583.3,10643.8 c -16.3,6.3 -39,11 -63.7,11 -40,0 -63.7,-16.3 -63.7,-44.2 0,-26.3 23.7,-41.1 53.7,-41.1 42.1,0 73.7,23.7 73.7,58.5 z m -1.6,-116.4 v 34.2 c -18.9,-22.6 -47.9,-40 -90,-40 -52.7,0 -99,30 -99,86.9 0,61.6 47.9,91.1 112.7,91.1 33.7,0 55.3,-4.8 76.8,-11.6 v 5.3 c 0,38.4 -24.2,59.5 -68.4,59.5 -31.1,0 -54.3,-6.9 -79.5,-17.4 l -17.4,51.1 c 30.5,13.7 60.6,23.2 105.8,23.2 82.2,0 122.2,-43.2 122.2,-117.5 v -164.8 h -63.2"
         style="fill:#739af0;fill-opacity:1;fill-rule:nonzero;stroke:none"
         id="path418" /><path
         d="m 10720.7,10805.4 h 63.8 v -62.6 c 17.4,41.6 49.5,70 98.4,67.9 v -67.4 h -3.6 c -55.9,0 -94.8,-36.3 -94.8,-110.1 v -105.8 h -63.8 v 278"
         style="fill:#739af0;fill-opacity:1;fill-rule:nonzero;stroke:none"
         id="path420" /><path
         d="m 10913.5,10665.9 c 0,79 61.1,145.3 144.3,145.3 52.7,0 85.3,-19.4 111.1,-47.9 l -39.5,-42.6 c -19.5,20.5 -40,34.7 -72.1,34.7 -46.4,0 -80.1,-40 -80.1,-89.5 0,-49.5 34.3,-89.5 83.2,-89.5 30,0 52.2,14.2 72.2,34.7 l 38.4,-37.9 c -27.4,-30.5 -59.5,-52.1 -113.7,-52.1 -82.7,0 -143.8,64.7 -143.8,144.8"
         style="fill:#739af0;fill-opacity:1;fill-rule:nonzero;stroke:none"
         id="path422" /><path
         d="m 11229.5,10911.8 h 63.7 v -149.5 c 17.9,26.3 43.7,48.9 86.9,48.9 62.7,0 99,-42.1 99,-106.9 v -176.9 h -63.7 v 158 c 0,43.2 -21.6,67.9 -59.5,67.9 -36.9,0 -62.7,-25.8 -62.7,-69 v -156.9 h -63.7 v 384.4"
         style="fill:#739af0;fill-opacity:1;fill-rule:nonzero;stroke:none"
         id="path424" /><path
         d="m 11551.8,10599.5 h 70 v -72.1 h -70 v 72.1"
         style="fill:#739af0;fill-opacity:1;fill-rule:nonzero;stroke:none"
         id="path426" /><path
         d="m 11693.4,10599.5 h 70.1 v -72.1 h -70.1 v 72.1"
         style="fill:#739af0;fill-opacity:1;fill-rule:nonzero;stroke:none"
         id="path428" /><path
         d="m 11835.1,10599.5 h 70 v -72.1 h -70 v 72.1"
         style="fill:#739af0;fill-opacity:1;fill-rule:nonzero;stroke:none"
         id="path430" /><path
         d="m 11976.8,10599.5 h 70 v -72.1 h -70 v 72.1"
         style="fill:#739af0;fill-opacity:1;fill-rule:nonzero;stroke:none"
         id="path432" /><path
         d="m 15660.6,7135.7 c 0,37.7 30.6,68.2 68.2,68.2 37.7,0 68.3,-30.5 68.3,-68.2 0,-37.6 -30.6,-68.2 -68.3,-68.2 -37.6,0 -68.2,30.6 -68.2,68.2"
         style="fill:#d7e5ff;fill-opacity:1;fill-rule:nonzero;stroke:none"
         id="path434" /><g
         id="g436"
         transform="scale(1.15648)"><path
           d="m 16284.2,6154.37 h -2667.7 c -8.7,0 -15.9,7.09 -15.9,15.83 0,8.81 7.2,15.91 15.9,15.91 h 2667.7 c 8.7,0 15.8,-7.1 15.8,-15.91 0,-8.74 -7.1,-15.83 -15.8,-15.83"
           style="fill:#d7e5ff;fill-opacity:1;fill-rule:nonzero;stroke:none"
           id="path438" /></g></g></g></svg>
